<?xml version="1.0" encoding="UTF-8" standalone="no"?>
<svg width="64px" height="101px" viewBox="0 0 64 101" version="1.1" xmlns="http://www.w3.org/2000/svg" xmlns:xlink="http://www.w3.org/1999/xlink">
    <!-- Generator: Sketch 42 (36781) - http://www.bohemiancoding.com/sketch -->
    <title>Group</title>
    <desc>Created with Sketch.</desc>
    <defs></defs>
    <g id="Page-1" stroke="none" stroke-width="1" fill="none" fill-rule="evenodd">
        <g id="Desktop-HD-Copy-2" transform="translate(-695.000000, -5672.000000)" fill-rule="nonzero">
            <g id="Group" transform="translate(695.000000, 5672.000000)">
                <path d="M40.896,100.552532 L8,100.552532 C3.776,100.552532 0.32,97.1006329 0.32,92.8816456 L0.32,49.7968354 C0.32,45.5778481 3.776,42.1259494 8,42.1259494 L40.896,42.1259494 C45.12,42.1259494 48.576,45.5778481 48.576,49.7968354 L48.576,92.8816456 C48.576,97.1006329 45.12,100.552532 40.896,100.552532 Z" id="Shape" fill="#A4DDF4"></path>
                <path d="M45.888,89.621519 C35.904,89.621519 27.776,81.5031646 27.776,71.5310127 C27.776,61.5588608 35.904,53.4405063 45.888,53.4405063 C55.872,53.4405063 64,61.4949367 64,71.5310127 C64,81.5670886 55.872,89.621519 45.888,89.621519 Z M45.888,59.7689873 C39.424,59.7689873 34.112,65.0746835 34.112,71.5310127 C34.112,77.9873418 39.424,83.293038 45.888,83.293038 C52.352,83.293038 57.664,77.9873418 57.664,71.5310127 C57.664,65.0746835 52.352,59.7689873 45.888,59.7689873 Z" id="Shape" fill="#A4DDF4"></path>
                <path d="M35.456,38.0987342 C35.456,38.0987342 28.608,30.3 33.024,23.0126582 C37.44,15.7253165 40.832,8.82151899 38.912,4.47468354 C38.912,4.47468354 44.736,13.7436709 43.776,22.9487342 C42.816,32.2177215 35.456,38.0987342 35.456,38.0987342 Z" id="Shape" fill="#3B444F" opacity="0.17"></path>
                <path d="M33.28,14.3189873 C33.28,14.3189873 34.624,12.593038 33.28,9.33291139 C31.936,6.07278481 32.256,3.00443038 33.856,0.319620253 C33.856,0.319620253 37.312,3.83544304 36.544,7.35126582 C35.84,10.8031646 35.328,12.1455696 33.28,14.3189873 Z" id="Shape" fill="#3B444F" opacity="0.17"></path>
                <g transform="translate(48.000000, 53.056962)" id="Shape" fill="#2EA8CE">
                    <path d="M0.576,6.96772152 C2.176,7.35126582 3.648,8.05443038 4.992,9.01329114 L4.992,1.78987342 C3.584,1.21455696 2.112,0.767088608 0.576,0.575316456 L0.576,6.96772152 Z"></path>
                    <path d="M4.928,27.8708861 C3.648,28.8297468 2.176,29.5329114 0.512,29.9164557 L0.512,36.3727848 C2.048,36.1170886 3.52,35.7335443 4.928,35.1582278 L4.928,27.8708861 Z"></path>
                </g>
                <path d="M41.984,49.0297468 L7.552,49.0297468 C6.528,49.0297468 5.696,48.1987342 5.696,47.1759494 L5.696,47.1759494 C5.696,46.1531646 6.528,45.3221519 7.552,45.3221519 L41.984,45.3221519 C43.008,45.3221519 43.84,46.1531646 43.84,47.1759494 L43.84,47.1759494 C43.904,48.1987342 43.008,49.0297468 41.984,49.0297468 Z" id="Shape" fill="#5B391A"></path>
            </g>
        </g>
    </g>
</svg>