<?xml version="1.0" encoding="UTF-8" standalone="no"?>
<svg width="49px" height="74px" viewBox="0 0 49 74" version="1.1" xmlns="http://www.w3.org/2000/svg" xmlns:xlink="http://www.w3.org/1999/xlink">
    <!-- Generator: Sketch 42 (36781) - http://www.bohemiancoding.com/sketch -->
    <title>Page 1</title>
    <desc>Created with Sketch.</desc>
    <defs>
        <polygon id="path-1" points="0.000345882353 73.4263566 48.5506988 73.4263566 48.5506988 0.259516279 0.000345882353 0.259516279 0.000345882353 73.4263566"></polygon>
        <polygon id="path-3" points="0 73.7407132 48.5509294 73.7407132 48.5509294 0.573643411 0 0.573643411"></polygon>
    </defs>
    <g id="Page-1" stroke="none" stroke-width="1" fill="none" fill-rule="evenodd">
        <g id="Desktop-HD-Copy-2" transform="translate(-1020.000000, -5698.000000)">
            <g id="Page-1" transform="translate(1020.000000, 5698.000000)">
                <g id="Group-3" transform="translate(0.000000, 0.314357)">
                    <mask id="mask-2" fill="white">
                        <use xlink:href="#path-1"></use>
                    </mask>
                    <g id="Clip-2"></g>
                    <path d="M47.9217694,22.3975628 C47.0253576,10.0235008 36.65984,0.259516279 23.9959341,0.259516279 C10.7434518,0.259516279 0.000345882353,10.9499349 0.000345882353,24.1379969 C0.000345882353,24.7236868 0.0285929412,25.302493 0.0700988235,25.8778574 L0.0700988235,73.426586 L48.5506988,73.426586 L47.9217694,22.3975628 Z" id="Fill-1" fill="#1D2E75" mask="url(#mask-2)"></path>
                </g>
                <mask id="mask-4" fill="white">
                    <use xlink:href="#path-3"></use>
                </mask>
                <g id="Clip-5"></g>
                <polygon id="Fill-4" fill="#F9C2A7" mask="url(#mask-4)" points="18.8707647 73.7407132 31.0798353 73.7407132 31.0798353 58.3791163 18.8707647 58.3791163"></polygon>
                <path d="M42.4833459,29.7430093 L42.4833459,44.0032109 C42.4833459,44.0032109 40.1757341,60.2832109 24.9171341,59.0946217 C24.9171341,59.0946217 8.50501647,61.7712419 4.91475765,44.4500791 L4.91475765,29.7430093 C4.91475765,29.7430093 21.4548518,29.5055209 29.9180165,19.8797845 C29.9180165,19.8797845 36.4569224,29.1487147 42.4833459,29.7430093" id="Fill-6" fill="#F9C2A7" mask="url(#mask-4)"></path>
                <path d="M18.8705341,58.8562155 C18.8705341,58.8562155 27.8657812,59.6971767 31.0796047,58.5332543 L31.0796047,71.6513318 C31.0796047,71.6513318 19.37264,72.4486961 18.8705341,58.8562155" id="Fill-7" fill="#E86F3F" mask="url(#mask-4)"></path>
                <path d="M1.72952706,38.5232527 C1.72952706,38.5232527 8.17908,53.4379814 21.5128447,52.0038729" id="Stroke-8" stroke="#1D2E75" stroke-width="4" mask="url(#mask-4)"></path>
            </g>
        </g>
    </g>
</svg>