<?xml version="1.0" encoding="UTF-8" standalone="no"?>
<svg width="67px" height="80px" viewBox="0 0 67 80" version="1.1" xmlns="http://www.w3.org/2000/svg" xmlns:xlink="http://www.w3.org/1999/xlink">
    <!-- Generator: Sketch 42 (36781) - http://www.bohemiancoding.com/sketch -->
    <title>Page 1</title>
    <desc>Created with Sketch.</desc>
    <defs>
        <polygon id="path-1" points="0 79.2981754 0 0.685614035 66.5658958 0.685614035 66.5658958 79.2981754 8.11355934e-15 79.2981754"></polygon>
        <polygon id="path-3" points="33.7638125 79.2981754 33.7638125 0.688287528 0.481004167 0.688287528 0.481004167 79.2981754 33.7638125 79.2981754"></polygon>
    </defs>
    <g id="Page-1" stroke="none" stroke-width="1" fill="none" fill-rule="evenodd">
        <g id="Desktop-HD-Copy-2" transform="translate(-371.000000, -5692.000000)">
            <g id="Page-1" transform="translate(371.000000, 5692.000000)">
                <g id="Group-3" transform="translate(0.000000, 0.016140)">
                    <mask id="mask-2" fill="white">
                        <use xlink:href="#path-1"></use>
                    </mask>
                    <g id="Clip-2"></g>
                    <path d="M33.9094677,79.2981754 L32.6818323,79.2981754 C31.570051,78.6771228 30.4282594,78.105193 29.3520719,77.4272982 C18.6278844,70.6701053 11.0087281,61.313614 6.30895729,49.5227368 C2.73981146,40.5690526 0.994321875,31.2160702 0.288030208,21.6371228 C0.210561458,20.5943158 0.0968010417,19.5529123 -0.000209375,18.5115088 L-0.000209375,17.2771228 C0.0947072917,17.1283509 0.207071875,16.9887018 0.281051042,16.8294035 C0.898707292,15.4988772 1.83670729,14.6799298 3.37561354,14.5465965 C6.32500938,14.2918596 9.05525938,13.2876491 11.612426,11.8195789 C14.2966135,10.2778246 16.9668427,8.70940351 19.6168323,7.11080702 C23.1692281,4.96764912 26.7453531,2.88484211 30.5811031,1.27361404 C32.4529156,0.487649123 34.2514469,0.473614035 36.0618427,1.32484211 C38.0516031,2.2602807 40.0846344,3.12414035 41.9920406,4.20835088 C45.6393531,6.28273684 49.191749,8.5234386 52.8195198,10.6322105 C55.5183635,12.2020351 58.2521031,13.7262456 61.3878427,14.273614 C62.2686135,14.4272982 63.160551,14.5346667 64.0287594,14.742386 C65.5886031,15.1143158 66.6808427,16.6237895 66.5566135,18.222386 C66.334676,21.0658947 66.1448427,23.9129123 65.8314781,26.7465965 C64.953499,34.7009825 63.194051,42.4434386 60.1483427,49.8609825 C54.844874,62.7739649 46.2807385,72.7529123 33.9094677,79.2981754" id="Fill-1" fill="#F9C170" mask="url(#mask-2)"></path>
                </g>
                <g id="Group-6" transform="translate(32.802083, 0.016140)">
                    <mask id="mask-4" fill="white">
                        <use xlink:href="#path-3"></use>
                    </mask>
                    <g id="Clip-5"></g>
                    <path d="M0.481004167,79.2981754 L1.10703542,79.2981754 C13.4790042,72.7522105 22.0431396,62.7739649 27.3459104,49.8609825 C30.3916187,42.4434386 32.1510667,34.7009825 33.0297437,26.7465965 C33.3424104,23.9129123 33.5329417,21.065193 33.7541812,18.222386 C33.8791083,16.6237895 32.7868687,15.1143158 31.2263271,14.742386 C30.3581187,14.5346667 29.4668792,14.4272982 28.5861083,14.273614 C25.4503687,13.7262456 22.7166292,12.2020351 20.0170875,10.6322105 C16.3893167,8.5234386 12.8369208,6.28203509 9.19030625,4.20835088 C7.2829,3.12414035 5.24986875,2.2602807 3.26010833,1.32484211 C2.33397292,0.889754386 1.41132708,0.684140351 0.481004167,0.688350877 L0.481004167,79.2981754 Z" id="Fill-4" fill="#F9A75D" mask="url(#mask-4)"></path>
                </g>
                <g id="Group-9" transform="translate(3.489583, 42.823158)" fill="#F9A75D">
                    <path d="M0.554285417,0.198666667 L29.7935042,0.198666667 L29.7935042,36.4912982 C29.7935042,36.4912982 9.7828375,29.6660351 0.554285417,0.198666667" id="Fill-7"></path>
                </g>
                <g id="Group-12" transform="translate(32.802083, 42.823158)" fill="#F9C170">
                    <path d="M0.481004167,0.198666667 L29.7788479,0.198666667 C29.7788479,0.198666667 22.8750562,27.5649825 0.481004167,36.4912982 L0.481004167,0.198666667 Z" id="Fill-10"></path>
                </g>
            </g>
        </g>
    </g>
</svg>