<?xml version="1.0" encoding="UTF-8" standalone="no"?>
<svg width="32px" height="24px" viewBox="0 0 32 24" version="1.1" xmlns="http://www.w3.org/2000/svg" xmlns:xlink="http://www.w3.org/1999/xlink">
    <!-- Generator: Sketch 42 (36781) - http://www.bohemiancoding.com/sketch -->
    <title>Page 1</title>
    <desc>Created with Sketch.</desc>
    <defs>
        <polygon id="path-1" points="27.5415437 0.249092971 0.142203482 0.249092971 0.142203482 23.5561867 27.5415437 23.5561867 27.5415437 0.249092971"></polygon>
        <polygon id="path-3" points="16.1633116 0.0884353741 16.1633116 21.1262283 8.09455379 21.1262283 0.0257959821 21.1262283 0.0257959821 0.0884353741 16.1633116 0.0884353741"></polygon>
        <polygon id="path-5" points="0 0.0882388511 0 21.1260317 16.1376158 21.1260317 16.1376158 0.0882388511 0 0.0882388511"></polygon>
    </defs>
    <g id="Page-1" stroke="none" stroke-width="1" fill="none" fill-rule="evenodd">
        <g id="Desktop-HD-Copy-2" transform="translate(-813.000000, -1621.000000)">
            <g id="Page-1" transform="translate(813.000000, 1621.000000)">
                <g id="Group-3" transform="translate(2.003571, 0.242460)">
                    <mask id="mask-2" fill="white">
                        <use xlink:href="#path-1"></use>
                    </mask>
                    <g id="Clip-2"></g>
                    <path d="M1.84924634,0.821417234 C1.23014277,0.821417234 0.725743661,1.28472033 0.725743661,1.85463719 L0.725743661,18.8956425 C0.725743661,19.4655593 1.23014277,19.9293537 1.84924634,19.9293537 L10.3098276,19.9293537 C11.8991606,19.9293537 13.2655963,20.7812812 13.8416231,21.989898 C14.4181508,20.7812812 15.7840856,19.9293537 17.3739196,19.9293537 L25.8345008,19.9293537 C26.4541053,19.9293537 26.9580035,19.4655593 26.9580035,18.8956425 L26.9580035,1.85463719 C26.9580035,1.28472033 26.4541053,0.821417234 25.8345008,0.821417234 L17.1184642,0.821417234 C15.4725303,0.821417234 14.1336437,2.06295163 14.1336437,3.58993575 C14.1336437,3.74813681 14.0029106,3.8758768 13.8416231,3.8758768 C13.6808365,3.8758768 13.5496026,3.74813681 13.5496026,3.58993575 C13.5496026,2.06295163 12.2112169,0.821417234 10.5647821,0.821417234 L1.84924634,0.821417234 Z M13.8416231,23.5561867 C13.6808365,23.5561867 13.5496026,23.4279554 13.5496026,23.2702457 C13.5496026,21.7432615 12.0960115,20.5017271 10.3098276,20.5017271 L1.84924634,20.5017271 C0.908068661,20.5017271 0.142203482,19.7809788 0.142203482,18.8956425 L0.142203482,1.85463719 C0.142203482,0.969300831 0.908068661,0.248552532 1.84924634,0.248552532 L10.5647821,0.248552532 C12.0308954,0.248552532 13.2931454,1.08082766 13.8416231,2.26684429 C14.3906017,1.08082766 15.6528517,0.248552532 17.1184642,0.248552532 L25.8345008,0.248552532 C26.7756785,0.248552532 27.5415437,0.969300831 27.5415437,1.85463719 L27.5415437,18.8956425 C27.5415437,19.7809788 26.7756785,20.5017271 25.8345008,20.5017271 L17.3739196,20.5017271 C15.5877356,20.5017271 14.1336437,21.7432615 14.1336437,23.2702457 C14.1336437,23.4279554 14.0029106,23.5561867 13.8416231,23.5561867 L13.8416231,23.5561867 Z" id="Fill-1" fill="#C6C6C6" mask="url(#mask-2)"></path>
                </g>
                <path d="M15.8453949,23.0659599 C15.6846083,23.0659599 15.5533744,22.9377286 15.5533744,22.7795276 L15.5533744,3.83224868 C15.5533744,3.67404762 15.6846083,3.54630763 15.8453949,3.54630763 C16.0061815,3.54630763 16.1374154,3.67404762 16.1374154,3.83224868 L16.1374154,22.7795276 C16.1374154,22.9377286 16.0061815,23.0659599 15.8453949,23.0659599" id="Fill-4" fill="#C6C6C6"></path>
                <path d="M29.4639204,3.07322751 L29.2535454,3.07322751 L29.2535454,19.1645351 C29.2535454,19.8931444 28.619415,20.4841875 27.8380221,20.4841875 L19.3774409,20.4841875 C17.4269641,20.4841875 15.8456454,21.8519879 15.8456454,23.5391383 L29.4639204,23.5391383 C30.5328257,23.5391383 31.3988695,22.7314286 31.3988695,21.7345654 L31.3988695,4.87730915 C31.3988695,3.88142857 30.5328257,3.07322751 29.4639204,3.07322751" id="Fill-6" fill="#E1E2E5"></path>
                <g id="Group-10" transform="translate(15.527679, 2.698998)">
                    <mask id="mask-4" fill="white">
                        <use xlink:href="#path-3"></use>
                    </mask>
                    <g id="Clip-9"></g>
                    <path d="M0.626867411,20.5538549 L13.9360915,20.5538549 C14.8427076,20.5538549 15.5800219,19.8729025 15.5800219,19.0357143 L15.5800219,2.17894936 C15.5800219,1.36681784 14.8862853,0.701587302 14.0172362,0.662773998 L14.0172362,16.4656841 C14.0172362,17.3505291 13.251371,18.0712774 12.3101933,18.0712774 L3.85011295,18.0712774 C2.17612902,18.0712774 0.795167411,19.1609977 0.626867411,20.5538549 M13.9360915,21.1262283 L0.317816518,21.1262283 C0.157029911,21.1262283 0.0257959821,20.997997 0.0257959821,20.8402872 C0.0257959821,18.9978836 1.74185491,17.498904 3.85011295,17.498904 L12.3101933,17.498904 C12.9297978,17.498904 13.433696,17.0351096 13.433696,16.4656841 L13.433696,0.374376417 C13.433696,0.216175359 13.564429,0.0884353741 13.7252156,0.0884353741 L13.9360915,0.0884353741 C15.1637799,0.0884353741 16.1635621,1.02585034 16.1635621,2.17894936 L16.1635621,19.0357143 C16.1635621,20.188322 15.1637799,21.1262283 13.9360915,21.1262283" id="Fill-8" fill="#C6C6C6" mask="url(#mask-4)"></path>
                </g>
                <path d="M12.3132488,20.4839418 L3.8526675,20.4839418 C3.07127464,20.4839418 2.43764518,19.89339 2.43764518,19.1642895 L2.43764518,3.07298186 L2.22676929,3.07298186 C1.15786393,3.07298186 0.291820179,3.88118292 0.291820179,4.8775548 L0.291820179,21.734811 C0.291820179,22.7311829 1.15786393,23.5388927 2.22676929,23.5388927 L15.8455452,23.5388927 C15.8455452,21.8517423 14.2642264,20.4839418 12.3132488,20.4839418" id="Fill-11" fill="#E1E2E5"></path>
                <g id="Group-15" transform="translate(0.000000, 2.698998)">
                    <mask id="mask-6" fill="white">
                        <use xlink:href="#path-5"></use>
                    </mask>
                    <g id="Clip-14"></g>
                    <path d="M2.14567473,0.662577475 C1.27712652,0.701882086 0.583890804,1.36711262 0.583890804,2.17875283 L0.583890804,19.0355178 C0.583890804,19.872706 1.32120509,20.5536584 2.22681938,20.5536584 L15.5360435,20.5536584 C15.3677435,19.1608012 13.9872828,18.0710809 12.3132988,18.0710809 L3.85271759,18.0710809 C2.91153991,18.0710809 2.14567473,17.3508239 2.14567473,16.4654875 L2.14567473,0.662577475 Z M15.8455953,21.1260317 L2.22681938,21.1260317 C0.999130982,21.1260317 -0.000150267857,20.1886168 -0.000150267857,19.0355178 L-0.000150267857,2.17875283 C-0.000150267857,1.02565382 0.999130982,0.0882388511 2.22681938,0.0882388511 L2.43769527,0.0882388511 C2.59848188,0.0882388511 2.72921491,0.216470144 2.72921491,0.374671202 L2.72921491,16.4654875 C2.72921491,17.0349131 3.23361402,17.4987075 3.85271759,17.4987075 L12.3132988,17.4987075 C14.4215569,17.4987075 16.1376158,18.9976871 16.1376158,20.8400907 C16.1376158,20.9982918 16.0063819,21.1260317 15.8455953,21.1260317 L15.8455953,21.1260317 Z" id="Fill-13" fill="#C6C6C6" mask="url(#mask-6)"></path>
                </g>
                <path d="M26.1817197,4.1184845 L19.1371626,4.1184845 C18.9753742,4.1184845 18.8451421,3.99025321 18.8451421,3.83205215 C18.8451421,3.6743424 18.9753742,3.54611111 19.1371626,3.54611111 L26.1817197,3.54611111 C26.3425063,3.54611111 26.4732394,3.6743424 26.4732394,3.83205215 C26.4732394,3.99025321 26.3425063,4.1184845 26.1817197,4.1184845" id="Fill-16" fill="#C6C6C6"></path>
                <path d="M26.1817197,7.17353364 L19.1371626,7.17353364 C18.9753742,7.17353364 18.8451421,7.04530234 18.8451421,6.88710128 C18.8451421,6.72939153 18.9753742,6.60116024 19.1371626,6.60116024 L26.1817197,6.60116024 C26.3425063,6.60116024 26.4732394,6.72939153 26.4732394,6.88710128 C26.4732394,7.04530234 26.3425063,7.17353364 26.1817197,7.17353364" id="Fill-18" fill="#C6C6C6"></path>
            </g>
        </g>
    </g>
</svg>