<svg width="24" height="31" fill="none" xmlns="http://www.w3.org/2000/svg"><mask id="a" maskUnits="userSpaceOnUse" x="0" y="9" width="24" height="22"><path d="M0 30.472h23.579V9.601H0v20.871z" fill="#fff"/></mask><g mask="url(#a)"><path fill-rule="evenodd" clip-rule="evenodd" d="M2.856 10.35A2.109 2.109 0 00.75 12.458v15.16c0 1.16.945 2.106 2.106 2.106h17.867a2.109 2.109 0 002.106-2.106v-15.16a2.109 2.109 0 00-2.106-2.106H2.856zm17.867 20.123H2.856A2.859 2.859 0 010 27.617v-15.16A2.859 2.859 0 012.856 9.6h17.867a2.86 2.86 0 012.856 2.856v15.16a2.86 2.86 0 01-2.856 2.856z" fill="#FB872B"/></g><path fill-rule="evenodd" clip-rule="evenodd" d="M12.871.904l2.216 4.49 4.956.72-3.586 3.497.847 4.936-4.433-2.331-4.433 2.33.846-4.935-3.586-3.496 4.956-.72L12.871.904z" fill="#FFD0B0"/><path clip-rule="evenodd" d="M12.871.904l2.216 4.49 4.956.72-3.586 3.497.847 4.936-4.433-2.331-4.433 2.33.846-4.935-3.586-3.496 4.956-.72L12.871.904z" stroke="#FB872B" stroke-width=".8"/><path fill-rule="evenodd" clip-rule="evenodd" d="M6.505 6.377l3.042 2.965a.37.37 0 01.107.332l-.716 4.187 3.759-1.977a.38.38 0 01.35 0l3.76 1.977-.718-4.187a.376.376 0 01.107-.332l3.042-2.965-4.204-.611a.373.373 0 01-.282-.205l-1.88-3.81-1.881 3.81a.371.371 0 01-.282.205l-4.204.61zm1.935 8.545a.375.375 0 01-.37-.439l.812-4.741-3.444-3.358a.375.375 0 01.208-.64l4.76-.692 2.13-4.314a.375.375 0 01.672 0l2.129 4.314 4.76.692a.377.377 0 01.209.64L16.86 9.742l.813 4.74a.376.376 0 01-.544.397l-4.258-2.24-4.258 2.24a.37.37 0 01-.174.043z" fill="#FB872B"/><path d="M4.868 27c-.27 0-.485-.075-.644-.224-.15-.15-.224-.36-.224-.63v-8.162c0-.27.075-.48.224-.63.159-.15.373-.224.644-.224h5.054c.27 0 .48.06.63.182.15.121.224.294.224.518 0 .233-.075.415-.224.546-.15.121-.36.182-.63.182H5.764v2.716h3.878c.27 0 .48.06.63.182.15.121.224.299.224.532 0 .224-.075.397-.224.518-.15.121-.36.182-.63.182H5.764v2.884h4.158c.27 0 .48.065.63.196.15.121.224.299.224.532 0 .224-.075.397-.224.518-.15.121-.36.182-.63.182H4.868zM19.82 25.712c.15.177.224.355.224.532 0 .224-.088.42-.266.588a.806.806 0 01-.588.252c-.233 0-.438-.103-.616-.308l-2.842-3.528-2.856 3.528a.768.768 0 01-.602.294.88.88 0 01-.602-.238.806.806 0 01-.252-.588.82.82 0 01.21-.532l3.052-3.724-2.926-3.57a.752.752 0 01-.21-.532c0-.224.084-.415.252-.574a.806.806 0 01.588-.252c.234 0 .44.103.616.308l2.73 3.374 2.73-3.374c.168-.205.37-.308.602-.308.224 0 .42.084.588.252.178.159.266.35.266.574 0 .205-.07.383-.21.532l-2.926 3.57 3.038 3.724z" fill="#FB872B"/></svg>