<?xml version="1.0" encoding="UTF-8" standalone="no"?>
<svg width="34px" height="32px" viewBox="0 0 34 32" version="1.1" xmlns="http://www.w3.org/2000/svg" xmlns:xlink="http://www.w3.org/1999/xlink">
    <!-- Generator: Sketch 42 (36781) - http://www.bohemiancoding.com/sketch -->
    <title>Page 1</title>
    <desc>Created with Sketch.</desc>
    <defs></defs>
    <g id="Page-1" stroke="none" stroke-width="1" fill="none" fill-rule="evenodd">
        <g id="Desktop-HD-Copy-2" transform="translate(-486.000000, -1522.000000)">
            <g id="For-you" transform="translate(17.000000, 854.000000)">
                <g id="Page-1" transform="translate(469.000000, 668.000000)">
                    <path d="M9.16645714,11.8328192 L6.54649286,11.8328192 L6.54649286,13.4317038 C6.54649286,13.6427423 6.63135,13.8370885 6.76806429,13.9742038 L6.77042143,13.9777808 C6.90713571,14.1160885 7.09924286,14.2007423 7.30667143,14.2007423 L8.40745714,14.2007423 C8.61488571,14.2007423 8.80699286,14.1160885 8.94370714,13.9777808 L8.94606429,13.9742038 C9.08395714,13.8370885 9.16645714,13.6427423 9.16645714,13.4317038 L9.16645714,11.8328192 Z M23.3894571,11.8328192 L20.7706714,11.8328192 L20.7706714,13.4317038 C20.7706714,13.6427423 20.85435,13.8370885 20.9898857,13.9742038 L20.9934214,13.9777808 C21.1301357,14.1160885 21.3222429,14.2007423 21.5296714,14.2007423 L22.6304571,14.2007423 C22.8390643,14.2007423 23.0311714,14.1160885 23.1667071,13.9777808 L23.1702429,13.9742038 C23.3057786,13.8370885 23.3894571,13.6427423 23.3894571,13.4317038 L23.3894571,11.8328192 Z M24.3264214,12.3061654 L27.2209929,12.3061654 L27.2433857,12.3061654 C27.7242429,12.3002038 28.1603143,12.0963192 28.4808857,11.7767808 C28.8026357,11.4500885 29.0041714,10.9958192 29.0041714,10.4998192 L29.0041714,5.67931923 L0.927064286,5.67931923 L0.927064286,10.4998192 C0.927064286,10.9958192 1.1286,11.4465115 1.45035,11.7767808 C1.77092143,12.0998962 2.20817143,12.3002038 2.68785,12.3061654 L2.70906429,12.3061654 L5.60599286,12.3061654 L5.60599286,11.3594731 L5.60599286,10.8861269 L6.07270714,10.8861269 L9.62963571,10.8861269 L10.09635,10.8861269 L10.09635,11.3594731 L10.09635,12.3061654 L19.8278143,12.3061654 L19.8278143,11.3594731 L19.8278143,10.8861269 L20.2957071,10.8861269 L23.8514571,10.8861269 L24.31935,10.8861269 L24.31935,11.3594731 L24.31935,12.3061654 L24.3264214,12.3061654 Z M21.05235,4.73262692 L21.05235,1.93785769 C21.05235,1.66481923 20.9403857,1.41801154 20.7647786,1.23916538 C20.5868143,1.06031923 20.3416714,0.94705 20.0729571,0.94705 L9.86417143,0.94705 C9.59427857,0.94705 9.34913571,1.06031923 9.17352857,1.23916538 C8.99556429,1.41801154 8.88477857,1.66481923 8.88477857,1.93785769 L8.88477857,4.73262692 L21.0499929,4.73262692 L21.05235,4.73262692 Z M7.95252857,4.73262692 L7.95252857,1.93785769 C7.95252857,1.40489615 8.16820714,0.918434615 8.51235,0.567896154 C8.86002857,0.216165385 9.33852857,0.000357692308 9.86770714,0.000357692308 L20.0764929,0.000357692308 C20.6033143,0.000357692308 21.0829929,0.219742308 21.4306714,0.567896154 L21.4306714,0.570280769 C21.7771714,0.922011538 21.9916714,1.40489615 21.9916714,1.93785769 L21.9916714,4.73262692 L29.4779571,4.73262692 L29.9470286,4.73262692 L29.9470286,5.20597308 L29.9470286,10.4998192 C29.9470286,11.2557423 29.6394214,11.9460885 29.1467786,12.4444731 C28.8486,12.7461269 28.4832429,12.9774346 28.0742786,13.1157423 L28.0742786,23.6688577 C28.0742786,24.1898962 27.8633143,24.6632423 27.5250643,25.0042423 C27.1879929,25.3464346 26.7201,25.5598577 26.2050643,25.5598577 L3.74149286,25.5598577 C3.22763571,25.5598577 2.75856429,25.3464346 2.42031429,25.0042423 C2.08324286,24.6632423 1.87345714,24.1898962 1.87345714,23.6688577 L1.87345714,13.1157423 C1.46331429,12.9774346 1.09677857,12.7461269 0.799778571,12.4444731 C0.305957143,11.9460885 0.000707142855,11.2557423 0.000707142855,10.4998192 L0.000707142855,5.20597308 L0.000707142855,4.73262692 L0.467421429,4.73262692 L7.95488571,4.73262692 L7.95252857,4.73262692 Z" id="Fill-1" fill="#FB872B"></path>
                    <path d="M19.8368893,13.2533346 L10.1066036,13.2533346 L10.1066036,13.4286038 C10.1066036,13.8995654 9.91449643,14.3287962 9.610425,14.6399885 L9.60688929,14.6435654 C9.30046071,14.9535654 8.87499643,15.1443346 8.41063929,15.1443346 L7.30985357,15.1443346 C6.84549643,15.1443346 6.42003214,14.9499885 6.112425,14.6435654 L6.11124643,14.6399885 C5.80363929,14.3287962 5.61506786,13.8995654 5.61506786,13.4286038 L5.61506786,13.2533346 L2.80535357,13.2533346 L2.80535357,23.6681423 C2.80535357,23.9292577 2.911425,24.1641423 3.08113929,24.3370269 C3.25203214,24.5087192 3.48421071,24.6160269 3.74231786,24.6160269 L26.2047107,24.6160269 C26.4616393,24.6160269 26.6938179,24.5087192 26.8647107,24.3370269 C27.0356036,24.1641423 27.1404964,23.9292577 27.1404964,23.6681423 L27.1404964,13.2533346 L24.3319607,13.2533346 L24.3319607,13.4286038 C24.3319607,13.8995654 24.1398536,14.3287962 23.8369607,14.6399885 L23.833425,14.6435654 C23.5269964,14.9535654 23.1027107,15.1443346 22.637175,15.1443346 L21.5352107,15.1443346 C21.0708536,15.1443346 20.6465679,14.9499885 20.3401393,14.6435654 L20.3366036,14.6399885 C20.0289964,14.3287962 19.840425,13.8995654 19.840425,13.4286038 L19.840425,13.2533346 L19.8368893,13.2533346 Z" id="Fill-3" fill="#FFD0B0"></path>
                    <path d="M17.4739714,17.0643077 L11.7791143,17.0643077" id="Stroke-5" stroke="#FB872B" stroke-width="0.8"></path>
                    <path d="M17.4739714,20.6412308 L11.7791143,20.6412308" id="Stroke-7" stroke="#FB872B" stroke-width="0.8"></path>
                    <path d="M32.9922214,24.4423077 C32.9922214,28.0645385 30.0894,31 26.5100786,31 C22.9307571,31 20.0279357,28.0645385 20.0279357,24.4423077 C20.0279357,20.8200769 22.9307571,17.8846154 26.5100786,17.8846154 C30.0894,17.8846154 32.9922214,20.8200769 32.9922214,24.4423077" id="Fill-9" fill="#FFFFFF"></path>
                    <path d="M32.9922214,24.4423077 C32.9922214,28.0645385 30.0894,31 26.5100786,31 C22.9307571,31 20.0279357,28.0645385 20.0279357,24.4423077 C20.0279357,20.8200769 22.9307571,17.8846154 26.5100786,17.8846154 C30.0894,17.8846154 32.9922214,20.8200769 32.9922214,24.4423077 Z" id="Stroke-11" stroke="#FB872B" stroke-width="0.8"></path>
                    <path d="M28.2779357,24.4842769 L28.2779357,24.5403154 C28.2755786,24.5438923 28.2720429,24.5474692 28.2720429,24.5522385 C28.2531857,24.6941231 28.1754,24.7895077 28.0551857,24.8586615 C27.3621857,25.2616615 26.6715429,25.6694308 25.9773643,26.0712385 C25.7958643,26.1761615 25.6237929,26.3037385 25.4210786,26.3705077 L25.3102929,26.3705077 C25.3020429,26.3669308 25.2926143,26.3633538 25.2820071,26.3597769 C25.1346857,26.3192385 25.0415786,26.2250462 25.0026857,26.0760077 C24.9979714,26.0569308 24.9944357,26.0366615 24.9897214,26.0175846 L24.9897214,23.0070077 C24.9932571,22.9950846 24.9967929,22.9831615 24.99915,22.9712385 C25.0274357,22.8210077 25.1134714,22.7220462 25.2560786,22.6719692 C25.2737571,22.6660077 25.2926143,22.6600462 25.3102929,22.6540846 L25.4210786,22.6540846 C25.5130071,22.6982 25.6061143,22.7387385 25.6956857,22.7888154 C25.9431857,22.9307 26.1883286,23.0761615 26.43465,23.2192385 C26.9803286,23.5387769 27.5271857,23.8583154 28.0740429,24.1766615 C28.1718643,24.2338923 28.2366857,24.3149692 28.2637929,24.4270462 L28.2779357,24.4842769 Z" id="Fill-13" fill="#FFFFFF"></path>
                    <path d="M28.2779357,24.4842769 L28.2779357,24.5403154 C28.2755786,24.5438923 28.2720429,24.5474692 28.2720429,24.5522385 C28.2531857,24.6941231 28.1754,24.7895077 28.0551857,24.8586615 C27.3621857,25.2616615 26.6715429,25.6694308 25.9773643,26.0712385 C25.7958643,26.1761615 25.6237929,26.3037385 25.4210786,26.3705077 L25.3102929,26.3705077 C25.3020429,26.3669308 25.2926143,26.3633538 25.2820071,26.3597769 C25.1346857,26.3192385 25.0415786,26.2250462 25.0026857,26.0760077 C24.9979714,26.0569308 24.9944357,26.0366615 24.9897214,26.0175846 L24.9897214,23.0070077 C24.9932571,22.9950846 24.9967929,22.9831615 24.99915,22.9712385 C25.0274357,22.8210077 25.1134714,22.7220462 25.2560786,22.6719692 C25.2737571,22.6660077 25.2926143,22.6600462 25.3102929,22.6540846 L25.4210786,22.6540846 C25.5130071,22.6982 25.6061143,22.7387385 25.6956857,22.7888154 C25.9431857,22.9307 26.1883286,23.0761615 26.43465,23.2192385 C26.9803286,23.5387769 27.5271857,23.8583154 28.0740429,24.1766615 C28.1718643,24.2338923 28.2366857,24.3149692 28.2637929,24.4270462 L28.2779357,24.4842769 Z" id="Stroke-15" stroke="#FB872B" stroke-width="0.8"></path>
                </g>
            </g>
        </g>
    </g>
</svg>