<svg width="125" height="126" fill="none" xmlns="http://www.w3.org/2000/svg"><g clip-path="url(#clip0)"><path d="M124.1 50.7c.7 3.5-2.6 7.5-2.6 11 .1 3.6 3.6 7.4 3.1 10.9s-5 6.1-6.2 9.4c-1.1 3.4.8 8.2-.9 11.3-1.7 3.1-6.8 4-9 6.8s-2 7.9-4.6 10.3c-2.7 2.3-7.7 1.4-10.8 3.3-3 1.8-4.5 6.8-7.9 8.1-3.3 1.3-7.7-1.3-11.3-.6-3.5.7-6.7 4.8-10.2 4.9-3.6.1-6.9-3.9-10.4-4.4-3.5-.5-7.9 2.2-11.2 1.1-3.4-1.1-5.1-6-8.2-7.7-3.1-1.7-8.2-.6-10.9-2.8-2.8-2.2-2.8-7.4-5.1-10.1-2.3-2.7-7.5-3.3-9.3-6.4-1.8-3 0-7.9-1.3-11.2C6 81.3 1.4 79 .7 75.4c-.7-3.5 2.6-7.5 2.6-11-.3-3.7-3.8-7.5-3.2-11 .5-3.5 5-6.1 6.2-9.4 1.1-3.4-.8-8.2.9-11.3 1.7-3.1 6.8-4 9-6.8s2-7.9 4.6-10.3c2.7-2.3 7.7-1.4 10.8-3.3 3-1.8 4.5-6.8 7.9-8.1 3.3-1.3 7.7 1.3 11.3.6C54.3 4.1 57.5 0 61-.1c3.6-.1 6.9 3.9 10.4 4.4 3.5.5 7.9-2.2 11.2-1.1 3.4 1.1 5.1 6 8.2 7.7 3.1 1.7 8.2.6 10.9 2.8 2.8 2.2 2.8 7.4 5.1 10.1 2.3 2.7 7.5 3.3 9.3 6.4 1.8 3 0 7.9 1.3 11.2 1.4 3.4 6 5.7 6.7 9.3z" fill="url(#paint0_linear)"/><path d="M72.7 115.1c-1.8.4-3.6.6-5.3.8-1.8.2-3.6.3-5.4.2-1.7 0-3.5-.1-5.2-.3-1.7-.2-3.5-.5-5.2-.8-1.7-.3-3.3-.8-5-1.3-1.6-.5-3.3-1.1-4.8-1.8-1.6-.7-3.1-1.4-4.6-2.2-1.5-.8-3-1.7-4.4-2.6-1.4-.9-2.8-2-4.1-3-1.3-1.1-2.6-2.2-3.8-3.4-1.2-1.2-2.4-2.5-3.5-3.8-1.1-1.3-2.1-2.7-3.1-4.1-1-1.4-1.9-2.9-2.7-4.5-.8-1.5-1.6-3.1-2.3-4.7l10.1 1 6.4-7.9c.4 1.1.9 2.1 1.5 3.1l1.8 3c.6.9 1.3 1.9 2.1 2.7.7.9 1.5 1.7 2.3 2.5.8.8 1.6 1.6 2.5 2.3.9.7 1.8 1.4 2.7 2 .9.6 1.9 1.2 2.9 1.8 1 .5 2 1 3.1 1.5 1.1.4 2.1.8 3.2 1.2l3.3.9c1.1.2 2.3.4 3.4.5 1.2.1 2.3.2 3.5.2 2.4 0 4.8-.2 7.1-.7 2.4-.5 4.7-1.2 6.8-2.1 1.1-.4 2.1-1 3.1-1.5l3-1.8c.9-.6 1.8-1.3 2.7-2.1.9-.7 1.7-1.5 2.5-2.3.8-.8 1.6-1.6 2.3-2.5.7-.9 1.4-1.8 2-2.7.6-.9 1.2-1.9 1.8-2.9.5-1 1-2 1.5-3.1.4-1.1.8-2.1 1.2-3.2l.9-3.3c.2-1.1.4-2.3.5-3.4.1-1.2.2-2.3.2-3.5l8.9 4.9 9-4.8c0 1.7-.1 3.5-.3 5.2-.2 1.7-.5 3.5-.8 5.2-.3 1.7-.8 3.3-1.3 5-.5 1.6-1.1 3.3-1.8 4.8-.7 1.6-1.4 3.1-2.2 4.6-.8 1.5-1.7 3-2.6 4.4-.9 1.4-2 2.8-3 4.1-1.1 1.3-2.2 2.6-3.4 3.8-1.2 1.2-2.5 2.4-3.8 3.5-1.3 1.1-2.7 2.1-4.1 3.1-1.4 1-2.9 1.9-4.5 2.7-1.5.8-3.1 1.6-4.7 2.3-1.6.7-3.3 1.3-5.1 1.8-1.8.5-3.5.9-5.3 1.2zM94.8 49.2c-.4-1.1-.9-2.1-1.5-3.1l-1.8-3c-.6-.9-1.3-1.9-2.1-2.7-.7-.9-1.5-1.7-2.3-2.5-.8-.8-1.6-1.6-2.5-2.3-.9-.7-1.8-1.4-2.7-2-.9-.6-1.9-1.2-2.9-1.7s-2-1-3.1-1.5c-1.1-.4-2.1-.8-3.2-1.2l-3.3-.9c-1.1-.2-2.3-.4-3.4-.5-1.2-.1-2.3-.2-3.5-.2-2.4 0-4.8.2-7.1.7-2.3.5-4.7 1.2-6.8 2.1-1.1.4-2.1.9-3.1 1.5l-3 1.8c-.9.6-1.8 1.3-2.7 2.1-.9.7-1.7 1.5-2.5 2.3-.8.8-1.6 1.6-2.3 2.5-.7.9-1.4 1.8-2 2.7-.6.9-1.2 1.9-1.8 2.9-.5 1-1 2-1.5 3.1-.4 1-.8 2.1-1.2 3.2l-.9 3.3c-.2 1.1-.4 2.3-.5 3.4-.1 1.2-.2 2.3-.2 3.5L18 57.9l-9 4.8c0-1.7.1-3.5.3-5.2.2-1.7.5-3.5.8-5.2.3-1.7.8-3.3 1.3-5 .5-1.7 1.1-3.3 1.8-4.8.7-1.6 1.4-3.1 2.2-4.6.8-1.5 1.7-3 2.6-4.4.9-1.4 2-2.8 3-4.1 1.1-1.3 2.2-2.6 3.4-3.8 1.2-1.2 2.5-2.4 3.8-3.5 1.3-1.1 2.7-2.1 4.1-3.1 1.4-1 2.9-1.9 4.5-2.7 1.5-.8 3.1-1.6 4.7-2.3 3.3-1.4 6.8-2.4 10.3-3.1 3.5-.7 7.1-1.1 10.7-1 1.7 0 3.5.1 5.2.3 1.7.2 3.5.5 5.2.8 1.7.3 3.3.8 5 1.3 1.6.5 3.3 1.1 4.8 1.8 1.6.7 3.1 1.4 4.6 2.2 1.5.8 3 1.7 4.4 2.6 1.4.9 2.8 2 4.1 3 1.3 1.1 2.6 2.2 3.8 3.4 1.2 1.2 2.4 2.5 3.5 3.8 1.1 1.3 2.1 2.7 3.1 4.1 1 1.4 1.9 2.9 2.7 4.5.8 1.5 1.6 3.1 2.3 4.7l-10.1-1-6.3 7.8z" fill="#2F89FC"/><path d="M47.6 76.3c-1.8.4-3.5.3-5-.3s-2.8-1.5-3.8-2.8c-1-1.3-1.8-3-2.2-4.9-.4-2-.4-3.8.1-5.5.5-1.7 1.4-3.1 2.6-4.2 1.3-1.1 2.9-1.9 4.9-2.3 2.3-.4 4.2-.3 5.9.5 1.7.8 3 2.1 3.8 3.9l-3.9.8c-.5-.8-1.1-1.4-2-1.8-.9-.4-1.9-.4-3.1-.2-1.9.4-3.3 1.3-4.1 2.7-.8 1.4-1 3.2-.6 5.3.4 2.1 1.3 3.7 2.5 4.6 1.3 1 2.8 1.3 4.6.9 1.7-.3 3-1.1 3.7-2.2.7-1.1 1-2.5.9-4l-4.9 1-.5-2.6 8.4-1.7L57 74.1l-3.2.6-.8-2.5c-.4 1-1.1 1.9-1.9 2.6-.9.8-2.1 1.2-3.5 1.5zM67 72.5c-1.4.3-2.7.3-3.9 0-1.2-.3-2.2-.8-3-1.6-.8-.8-1.3-1.8-1.6-3.1l3.7-.7c.2.9.7 1.6 1.4 2.1s1.6.6 2.7.4c.9-.2 1.6-.6 2.1-1.1.5-.6.6-1.2.5-2-.2-.8-.5-1.4-1.1-1.7-.6-.3-1.3-.6-2.1-.7-.9-.1-1.8-.2-2.8-.4-1.6-.2-2.8-.7-3.8-1.3-.9-.7-1.5-1.6-1.8-3-.2-1.1-.2-2.2.2-3.1.4-.9 1-1.7 1.9-2.4.9-.6 2-1.1 3.2-1.3 1.3-.3 2.5-.2 3.5 0 1.1.3 2 .8 2.7 1.5.7.7 1.2 1.6 1.5 2.8l-3.8.7c-.2-.7-.5-1.2-1.1-1.6-.6-.4-1.4-.5-2.3-.4-.8.1-1.4.5-1.8.9-.4.5-.6 1.1-.4 1.9.1.6.4 1.1.9 1.4.5.3 1.1.5 1.8.6.7.1 1.6.2 2.6.3 1 .1 2 .4 2.8.6.9.3 1.6.7 2.2 1.4.6.6 1 1.5 1.3 2.6.2 1 .1 2-.2 3-.3 1-1 1.8-1.9 2.5-.8.9-2 1.4-3.4 1.7zM76.7 70.2L72.9 51l7.1-1.4c1.5-.3 2.9-.3 4 0s2 .9 2.7 1.7c.7.8 1.1 1.8 1.3 2.9.2 1.1.2 2.1-.1 3.1-.3 1-.9 1.7-1.8 2.4S84 61 82.4 61.3l-3.6.7 1.5 7.4-3.6.8zm1.5-11l3.4-.7c1.2-.2 2.1-.7 2.5-1.3.4-.6.6-1.4.4-2.4-.2-1-.6-1.6-1.3-2.1-.6-.4-1.6-.5-2.8-.3l-3.4.7 1.2 6.1z" fill="#185EB8"/><path d="M22.6 52c-.2.5-.4 1-.8 1.3-.4.3-.8.6-1.3.7-.5.1-1.1.1-1.7-.1-.6-.2-1.1-.4-1.5-.8-.4-.4-.7-.8-.8-1.3-.1-.5-.1-1.1 0-1.7.2-.7.5-1.2 1-1.6.5-.4 1-.5 1.6-.5l-.3 1.2c-.3 0-.6.1-.8.3-.2.2-.4.5-.5.8-.2.6-.1 1.1.2 1.5.3.4.7.7 1.4.9.6.2 1.2.2 1.6 0 .4-.2.7-.6.9-1.1.1-.5.1-1-.1-1.3-.2-.3-.5-.6-1-.8l-.3 1.5-.8-.2.7-2.5 3.2.9-.3 1-.8-.1c.2.3.4.6.4.9.1.2.1.5 0 1zM24.6 46.4c-.2.4-.4.7-.7 1-.3.2-.6.4-.9.5-.3.1-.7 0-1.1-.1l.5-1.1c.3.1.5.1.8 0 .3-.1.4-.3.6-.6.1-.3.1-.5.1-.7-.1-.2-.2-.4-.4-.5-.2-.1-.4-.1-.6 0-.2.1-.4.2-.6.4l-.6.6c-.3.4-.7.6-1 .7-.3.1-.7.1-1.1-.1-.3-.1-.6-.3-.7-.6-.2-.3-.3-.6-.3-.9 0-.3.1-.7.2-1.1.2-.4.4-.7.6-.9.3-.2.5-.4.8-.4.3-.1.6 0 1 .1l-.5 1.1c-.2-.1-.4-.1-.6 0-.2.1-.4.2-.5.5-.1.2-.1.4-.1.6 0 .2.2.3.4.4.2.1.4.1.5 0 .2-.1.3-.2.5-.4s.3-.4.5-.6c.2-.2.4-.4.7-.6.2-.2.5-.3.7-.3.3 0 .6 0 .9.1.3.1.5.3.7.6.2.3.3.6.3.9.1.6.1 1-.1 1.4zM26.4 42.6L21.9 40l-.9 1.5-.7-.5 2.4-4 .8.5-1 1.5 4.5 2.6-.6 1zM30.8 36.4c-.3.3-.6.6-.9.8-.3.2-.7.2-1 .2-.3 0-.7-.2-1-.4l.8-.9c.2.2.5.2.7.2.3 0 .5-.2.7-.4.2-.2.3-.4.3-.7 0-.2-.1-.4-.3-.6-.2-.2-.4-.2-.6-.2-.2 0-.4.1-.7.3-.3.2-.5.3-.7.4-.4.3-.8.4-1.2.4-.4 0-.7-.1-1-.4-.3-.2-.5-.5-.5-.8-.1-.3-.1-.6 0-.9.1-.3.3-.6.5-.9.3-.3.5-.5.9-.7.3-.1.6-.2.9-.2.3 0 .6.2.9.4l-.8.9c-.2-.1-.4-.2-.6-.2-.2 0-.4.1-.6.3-.2.2-.2.4-.3.6-.1.2.1.4.3.5.2.1.3.2.5.2s.4-.1.6-.2c.2-.1.4-.3.7-.4.3-.2.5-.3.8-.4.3-.1.5-.1.8-.1.3 0 .5.2.8.4.2.2.4.5.5.8.1.3.1.6 0 1s-.2.7-.5 1zM34.4 32.6c-.3.3-.7.5-1.1.6-.4.1-.8.1-1.2 0-.4-.1-.8-.4-1.2-.8l-2.5-2.8.8-.7 2.5 2.8c.3.3.6.5 1 .5.3 0 .6-.1.9-.4.3-.3.4-.6.5-.9 0-.3-.1-.7-.5-1l-2.5-2.8.8-.8 2.5 2.8c.4.4.6.8.7 1.2.1.4 0 .8-.1 1.2 0 .5-.3.8-.6 1.1zM38.3 29.3L33 25.6l1-.7 4.2 3.1-1.4-5 1-.7 1.6 6.2-1.1.8zM41.8 27.1l-2.9-5.3 1-.5 2.9 5.3-1 .5zM43.7 26l-2.4-5.6 1.9-.8c.7-.3 1.2-.4 1.8-.3.5 0 1 .2 1.4.6.4.3.7.8.9 1.3.2.6.3 1.1.3 1.6s-.2 1-.5 1.4c-.3.4-.8.8-1.5 1l-1.9.8zm.6-1.3l.8-.4c.5-.2.8-.4 1-.7.2-.3.3-.6.3-.9 0-.3-.1-.7-.3-1.1-.2-.4-.4-.7-.6-.9-.2-.2-.5-.4-.9-.4-.3 0-.7 0-1.2.2l-.8.4 1.7 3.8zM49.2 23.7l-1.6-5.8 1.1-.3.7 2.4 2.6-.7-.7-2.4 1.1-.3 1.6 5.8-1.1.3-.7-2.5-2.6.7.7 2.5-1.1.3zM54.5 22.3L56 16l1.2-.2 2.9 5.7-1.1.3-.7-1.3-2.3.2-.3 1.5-1.2.1zm1.7-2.5l1.7-.2-1.2-2.4-.5 2.6zM62.8 21.6l.4-6 2.2.1c.5 0 .9.1 1.2.3.3.2.5.4.7.7.1.3.2.6.2 1 0 .3-.1.6-.3.9-.2.3-.4.5-.7.6-.3.2-.7.2-1.2.2l-1.3-.1-.1 2.3h-1.1zm1.3-3.2l1.1.1c.4 0 .7 0 .8-.2.2-.2.3-.4.3-.7 0-.3-.1-.5-.2-.7-.2-.2-.4-.3-.8-.3l-1.1-.1-.1 1.9zM67.8 22l1.1-6 2.2.4c.5.1.9.2 1.1.5.3.2.5.5.6.8.1.3.1.6.1 1-.1.4-.2.7-.5.9-.2.3-.6.4-1 .5l.8 2.7-1.2-.2-.7-2.6-.9-.2-.4 2.3-1.2-.1zm1.7-3l1 .2c.4.1.6 0 .8-.1.2-.1.3-.4.4-.7.1-.3 0-.5-.1-.7-.1-.2-.4-.3-.8-.4l-1-.2-.3 1.9zM75.6 23.9c-.6-.2-1-.5-1.4-.9-.3-.4-.6-.9-.7-1.4-.1-.5 0-1.1.2-1.7.2-.6.5-1.1.9-1.4.4-.4.8-.6 1.4-.7.5-.1 1.1-.1 1.6.1.6.2 1 .5 1.4.9.3.4.6.9.7 1.4.1.5 0 1.1-.2 1.7-.2.6-.5 1.1-.9 1.4-.4.4-.8.6-1.4.7-.5.2-1.1.1-1.6-.1zm.3-.9c.5.2 1 .2 1.5-.1.4-.3.8-.7 1-1.3.2-.6.2-1.2 0-1.6-.2-.5-.6-.8-1.1-1-.5-.2-1-.2-1.5.1-.4.2-.8.7-1 1.3-.2.6-.2 1.2 0 1.6.2.5.5.8 1.1 1zM80.5 25.9l.8-6.4 1.1.5-.7 5.2 3.8-3.6 1 .5-4.7 4.4-1.3-.6zM84.2 27.9l3.3-5.1.9.6-3.3 5.1-.9-.6zM86 29l3.8-4.8 1.6 1.3c.6.4.9.9 1.1 1.4.2.5.3 1 .1 1.5-.1.5-.3 1-.7 1.5-.4.5-.8.8-1.2 1-.5.2-.9.3-1.5.2-.5-.1-1.1-.4-1.6-.8L86 29zm1.5 0l.7.6c.4.3.8.5 1.1.6.3.1.6 0 .9-.2.3-.2.6-.4.8-.8.3-.3.4-.7.5-1 .1-.3.1-.6-.1-1-.1-.3-.4-.6-.8-.9l-.7-.6-2.4 3.3zM90.6 32.8l4.3-4.2 2.8 2.8-.6.6-2-2-1.2 1.2 1.8 1.9-.6.6-1.8-1.8-1.3 1 2 2-.6.6-2.8-2.7zM94 36.3l4.8-3.7 1.3 1.8c.3.4.5.8.5 1.1.1.3 0 .7-.1 1-.1.3-.3.5-.6.8-.3.2-.6.4-1 .4s-.7-.1-1.1-.3l-1.3 2.5-.8-1 1.2-2.3-.6-.7-1.9 1.4-.4-1zm3.2-1.1l.6.8c.2.3.5.5.7.5.2 0 .5 0 .7-.2.2-.2.4-.4.4-.6 0-.2-.1-.5-.3-.8l-.6-.9-1.5 1.2zM26.1 94c-.4-.4-.6-.9-.7-1.4-.1-.5 0-1 .2-1.5s.5-.9 1-1.3 1-.7 1.5-.8c.5-.1 1-.1 1.5.1s1 .5 1.4 1c.5.5.7 1.1.8 1.7.1.6-.1 1.1-.5 1.6l-.8-.9c.2-.3.2-.5.2-.8 0-.3-.2-.6-.4-.9-.4-.5-.8-.7-1.3-.7s-1 .2-1.5.7c-.5.4-.8.9-.9 1.4-.1.5.1.9.4 1.4.4.4.7.6 1.1.7.4 0 .8-.1 1.2-.4l-1-1.2.6-.5 1.7 2-2.5 2.2-.7-.8.5-.6c-.3 0-.7 0-1-.1-.2-.3-.5-.6-.8-.9zM30.7 98.7c-.3-.3-.6-.6-.7-1-.2-.3-.2-.7-.2-1 0-.3.2-.7.5-1l.9.8c-.2.2-.3.5-.2.7 0 .3.2.5.4.7.2.2.4.3.7.3.2 0 .4-.1.6-.3.2-.2.2-.4.2-.6 0-.2-.1-.4-.2-.7-.1-.2-.3-.5-.4-.7-.2-.4-.4-.8-.4-1.2 0-.4.1-.7.4-1 .2-.3.5-.4.8-.5.3-.1.6-.1.9 0 .3.1.6.3.9.5.3.3.5.6.7.9.1.3.2.6.1.9 0 .3-.2.6-.4.9l-.9-.8c.1-.2.2-.4.2-.6 0-.2-.1-.4-.3-.6-.2-.2-.4-.3-.6-.3-.2 0-.4.1-.5.2-.1.2-.2.3-.2.5s.1.4.2.6c.1.2.2.4.4.7.2.3.3.5.4.8.1.3.1.5.1.8 0 .3-.2.5-.4.8-.2.2-.5.4-.8.5-.3.1-.6.1-1 0s-.8 0-1.2-.3zM34.6 101.6l3-4.2-1.4-1 .5-.7 3.8 2.7-.6.6-1.5-1-3 4.2-.8-.6zM41.8 106c-.4-.2-.7-.4-1-.7-.2-.3-.4-.6-.4-.9-.1-.3 0-.7.2-1.1l1.1.5c-.1.3-.1.5 0 .8.1.3.3.5.6.6.3.1.5.2.7.1.2-.1.4-.2.5-.4.1-.2.1-.4 0-.6-.1-.2-.2-.4-.4-.6l-.6-.6c-.4-.3-.6-.7-.7-1-.1-.3-.1-.7.1-1.1.2-.3.4-.6.6-.7.3-.2.6-.2.9-.2.3 0 .7.1 1 .3.4.2.7.4.9.7.2.3.3.6.4.9 0 .3 0 .6-.1 1l-1.1-.5c.1-.2.1-.4 0-.6-.1-.2-.2-.4-.5-.5-.2-.1-.4-.1-.6-.1-.2 0-.4.2-.5.4-.1.2-.1.4 0 .5.1.2.2.3.3.5.2.2.3.4.6.6.2.2.4.5.6.7.2.2.3.5.3.8 0 .3 0 .6-.2.9-.1.3-.3.5-.6.7-.3.2-.6.3-.9.3-.4-.4-.8-.5-1.2-.7zM47.2 108.2c-.4-.1-.8-.4-1.1-.6-.3-.2-.5-.6-.6-1-.1-.4 0-.9.1-1.4l1.2-3.5 1 .4-1.2 3.6c-.1.4-.2.8 0 1.1.1.3.4.5.8.6.4.1.7.1 1 0 .3-.1.5-.4.7-.9l1.2-3.6 1 .4-1.2 3.5c-.2.5-.4.9-.7 1.2-.3.3-.7.4-1.1.5-.4.1-.7-.1-1.1-.3zM52.9 109.6l-1-6.4 1.2.2.8 5.2 2.6-4.5 1.1.2-3.3 5.5-1.4-.2zM57.4 110.3l.6-6 1.1.1-.6 6-1.1-.1zM60 110.6v-6.1h2.1c.7 0 1.3.1 1.8.4.5.2.8.6 1 1.1.2.5.3 1 .3 1.6 0 .6-.1 1.1-.3 1.6-.2.5-.6.8-1 1.1-.5.3-1 .4-1.8.4l-2.1-.1zm1.1-1h.9c.5 0 .9-.1 1.2-.3.3-.2.5-.4.6-.7.1-.3.2-.7.2-1.1 0-.4-.1-.8-.2-1.1-.1-.3-.3-.5-.6-.7-.3-.2-.7-.2-1.2-.2h-.9v4.1zM66.7 110.4l-.9-6 1.1-.2.4 2.5 2.7-.4-.4-2.5 1.1-.2.9 6-1.1.2-.4-2.6-2.7.4.4 2.6-1.1.2zM72.8 109.5l.5-6.4 1.2-.3 3.8 5.2-1.1.3-.9-1.2-2.3.7-.1 1.5-1.1.2zm1.3-2.7l1.7-.5-1.5-2.2-.2 2.7zM81.5 106.6l-2.7-5.4 2-1c.4-.2.8-.3 1.2-.3.4 0 .7.1.9.3.3.2.5.4.6.8.1.3.2.6.2.9 0 .3-.1.6-.3.9-.2.3-.5.5-1 .8l-1 .5 1 2.1-.9.4zm-.4-3.4l1-.5c.3-.2.6-.4.6-.6.1-.2.1-.5-.1-.7-.1-.3-.3-.4-.5-.5-.2-.1-.5 0-.9.1l-1 .5.9 1.7zM86.5 104l-3.3-5 1.9-1.2c.4-.3.8-.4 1.1-.4.4 0 .7 0 1 .2.3.2.5.4.7.7.2.3.3.6.3 1s-.1.7-.4 1.1l2.4 1.4-1.1.7-2.2-1.4-.8.5 1.3 2-.9.4zm-.8-3.3l.9-.6c.3-.2.5-.4.5-.7 0-.2 0-.5-.2-.7-.2-.2-.4-.4-.6-.4-.2-.1-.5 0-.8.2l-.9.6 1.1 1.6zM93.7 99c-.5.4-.9.6-1.5.7-.5.1-1 .1-1.5-.1s-1-.5-1.4-1c-.4-.5-.7-1-.8-1.5-.1-.5-.1-1 .1-1.5s.5-.9.9-1.3c.5-.4.9-.6 1.5-.7.5-.1 1-.1 1.5.1s1 .5 1.4 1c.4.5.7 1 .8 1.5.1.5.1 1-.1 1.5-.2.4-.5.9-.9 1.3zm-.7-.8c.4-.4.7-.8.7-1.3s-.2-1-.6-1.5c-.4-.5-.9-.8-1.4-.8-.5-.1-1 .1-1.4.5-.4.4-.7.8-.7 1.3s.2 1 .6 1.5c.4.5.9.8 1.4.8.5 0 1-.1 1.4-.5zM97.9 94.6l-6-2.3.8-.9 4.8 1.9-2.6-4.5.8-.9 3.1 5.6-.9 1.1zM100.8 91l-4.9-3.5.6-.9 4.9 3.5-.6.9zM102.3 88.9l-5.2-3 1-1.8c.4-.6.8-1.1 1.2-1.3.4-.3.9-.4 1.4-.4.5 0 1 .2 1.5.5s.9.7 1.2 1.1c.3.4.4.9.4 1.4 0 .5-.2 1.1-.5 1.7l-1 1.8zm-.3-1.4l.5-.8c.3-.4.4-.8.4-1.2 0-.3-.1-.6-.3-.9-.2-.3-.5-.5-.9-.7-.4-.2-.7-.3-1.1-.4-.3 0-.6 0-.9.2-.3.2-.6.5-.8.9l-.5.8 3.6 2.1zM105.5 83.1l-5.6-2.3 1.5-3.6.8.3-1.1 2.6 1.5.6 1-2.4.8.3-1 2.4 1.6.7 1.1-2.6.8.3-1.4 3.7zM107.5 78.1l-5.8-1.7.6-2.1c.1-.5.3-.8.6-1.1.2-.3.5-.4.8-.5.3-.1.6-.1 1 0s.7.3.9.6c.2.3.4.6.4 1.1l2.8-.5-.3 1.2-2.6.4-.3.9 2.3.7-.4 1zm-2.8-2l.3-1c.1-.4.1-.6 0-.9-.1-.2-.3-.4-.6-.4-.3-.1-.5-.1-.7.1-.2.1-.4.4-.5.7l-.3 1 1.8.5z" fill="#fff"/></g><defs><linearGradient id="paint0_linear" x1="62" y1="-6.5" x2="62.34" y2="126.102" gradientUnits="userSpaceOnUse"><stop stop-color="#CFE4FF"/><stop offset="1" stop-color="#CFE4FF" stop-opacity=".35"/></linearGradient><clipPath id="clip0"><path fill="#fff" d="M0 0h124.6v125.9H0z"/></clipPath></defs></svg>