<?xml version="1.0" encoding="UTF-8" standalone="no"?>
<svg width="28px" height="31px" viewBox="0 0 28 31" version="1.1" xmlns="http://www.w3.org/2000/svg" xmlns:xlink="http://www.w3.org/1999/xlink">
    <!-- Generator: Sketch 42 (36781) - http://www.bohemiancoding.com/sketch -->
    <title>Page 1</title>
    <desc>Created with Sketch.</desc>
    <defs>
        <polygon id="path-1" points="27.609 0.075 27.609 27 14.14625 27 0.6835 27 0.6835 0.075 27.609 0.075"></polygon>
    </defs>
    <g id="Page-1" stroke="none" stroke-width="1" fill="none" fill-rule="evenodd">
        <g id="Desktop-HD-Copy-2" transform="translate(-1009.000000, -1263.000000)">
            <g id="For-you" transform="translate(17.000000, 854.000000)">
                <g id="Page-1" transform="translate(992.000000, 409.000000)">
                    <g id="Group-3" transform="translate(0.000000, 3.338900)">
                        <mask id="mask-2" fill="white">
                            <use xlink:href="#path-1"></use>
                        </mask>
                        <g id="Clip-2"></g>
                        <path d="M14.1465,27 C6.7225,27 0.6835,20.96 0.6835,13.537 C0.6835,13.33 0.8515,13.162 1.0585,13.162 C1.2655,13.162 1.4335,13.33 1.4335,13.537 C1.4335,20.547 7.1365,26.25 14.1465,26.25 C21.1565,26.25 26.8595,20.547 26.8595,13.537 C26.8595,6.527 21.1565,0.825 14.1465,0.825 L1.0585,0.825 C0.8515,0.825 0.6835,0.657 0.6835,0.45 C0.6835,0.243 0.8515,0.075 1.0585,0.075 L14.1465,0.075 C21.5705,0.075 27.6095,6.114 27.6095,13.537 C27.6095,20.96 21.5705,27 14.1465,27" id="Fill-1" fill="#FB872B" mask="url(#mask-2)"></path>
                    </g>
                    <path d="M4.1074,7.9478 C4.0114,7.9478 3.9154,7.9108 3.8414,7.8378 L0.1094,4.1058 C0.0394,4.0348 0.0004,3.9398 0.0004,3.8408 C0.0004,3.7408 0.0394,3.6458 0.1094,3.5748 L3.5754,0.1098 C3.7214,-0.0362 3.9604,-0.0362 4.1064,0.1098 C4.2524,0.2568 4.2524,0.4938 4.1064,0.6398 L0.9054,3.8408 L4.3734,7.3078 C4.5184,7.4538 4.5184,7.6918 4.3734,7.8378 C4.2994,7.9108 4.2034,7.9478 4.1074,7.9478" id="Fill-4" fill="#FB872B"></path>
                    <path d="M22.0293,16.8218 C22.0293,21.2398 18.4473,24.8218 14.0293,24.8218 C9.6113,24.8218 6.0293,21.2398 6.0293,16.8218 C6.0293,12.4038 9.6113,8.8218 14.0293,8.8218 C18.4473,8.8218 22.0293,12.4038 22.0293,16.8218" id="Fill-6" fill="#FFD0B0"></path>
                    <path d="M22.0293,16.8218 C22.0293,21.2398 18.4473,24.8218 14.0293,24.8218 C9.6113,24.8218 6.0293,21.2398 6.0293,16.8218 C6.0293,12.4038 9.6113,8.8218 14.0293,8.8218 C18.4473,8.8218 22.0293,12.4038 22.0293,16.8218 Z" id="Stroke-8" stroke="#FB872B" stroke-width="0.8"></path>
                    <path d="M19.5293,16.8218 C19.5293,19.8598 17.0663,22.3218 14.0293,22.3218 C10.9923,22.3218 8.5293,19.8598 8.5293,16.8218 C8.5293,13.7838 10.9923,11.3218 14.0293,11.3218 C17.0663,11.3218 19.5293,13.7838 19.5293,16.8218" id="Fill-10" fill="#FFFFFF"></path>
                    <path d="M19.5293,16.8218 C19.5293,19.8598 17.0663,22.3218 14.0293,22.3218 C10.9923,22.3218 8.5293,19.8598 8.5293,16.8218 C8.5293,13.7838 10.9923,11.3218 14.0293,11.3218 C17.0663,11.3218 19.5293,13.7838 19.5293,16.8218 Z" id="Stroke-12" stroke="#FB872B" stroke-width="0.8"></path>
                    <path d="M12.5293,14.3218 L12.5293,16.3218" id="Stroke-14" stroke="#FB872B" stroke-width="0.8" stroke-linecap="round" stroke-linejoin="round"></path>
                    <path d="M15.5293,14.3218 L15.5293,18.3218" id="Stroke-16" stroke="#FB872B" stroke-width="0.8" stroke-linecap="round" stroke-linejoin="round"></path>
                </g>
            </g>
        </g>
    </g>
</svg>