<?xml version="1.0" encoding="UTF-8" standalone="no"?>
<svg width="32px" height="25px" viewBox="0 0 32 25" version="1.1" xmlns="http://www.w3.org/2000/svg" xmlns:xlink="http://www.w3.org/1999/xlink">
    <!-- Generator: Sketch 42 (36781) - http://www.bohemiancoding.com/sketch -->
    <title>Page 1</title>
    <desc>Created with Sketch.</desc>
    <defs></defs>
    <g id="Page-1" stroke="none" stroke-width="1" fill="none" fill-rule="evenodd">
        <g id="Desktop-HD-Copy-2" transform="translate(-1007.000000, -1117.000000)">
            <g id="For-you" transform="translate(17.000000, 854.000000)">
                <g id="Page-1" transform="translate(990.000000, 263.000000)">
                    <g id="Group-34" transform="translate(0.000000, 0.070800)">
                        <path d="M21.5258,23.2458 L3.9798,23.2458 C2.8568,23.2458 1.9468,22.3358 1.9468,21.2128 L1.9468,20.6898 C1.9468,19.5678 2.8568,18.6578 3.9798,18.6578 L21.5258,18.6578 C22.6488,18.6578 23.5588,19.5678 23.5588,20.6898 L23.5588,21.2128 C23.5588,22.3358 22.6488,23.2458 21.5258,23.2458" id="Fill-1" fill="#FFFFFF"></path>
                        <path d="M21.5258,23.2458 L3.9798,23.2458 C2.8568,23.2458 1.9468,22.3358 1.9468,21.2128 L1.9468,20.6898 C1.9468,19.5678 2.8568,18.6578 3.9798,18.6578 L21.5258,18.6578 C22.6488,18.6578 23.5588,19.5678 23.5588,20.6898 L23.5588,21.2128 C23.5588,22.3358 22.6488,23.2458 21.5258,23.2458 Z" id="Stroke-3" stroke="#FB872B" stroke-width="0.75" stroke-linecap="round" stroke-linejoin="round"></path>
                        <path d="M20.3793,18.6574 L2.8323,18.6574 C1.7103,18.6574 0.8003,17.7474 0.8003,16.6244 L0.8003,16.1014 C0.8003,14.9794 1.7103,14.0694 2.8323,14.0694 L20.3793,14.0694 C21.5013,14.0694 22.4113,14.9794 22.4113,16.1014 L22.4113,16.6244 C22.4113,17.7474 21.5013,18.6574 20.3793,18.6574" id="Fill-5" fill="#FFFFFF"></path>
                        <path d="M20.3793,18.6574 L2.8323,18.6574 C1.7103,18.6574 0.8003,17.7474 0.8003,16.6244 L0.8003,16.1014 C0.8003,14.9794 1.7103,14.0694 2.8323,14.0694 L20.3793,14.0694 C21.5013,14.0694 22.4113,14.9794 22.4113,16.1014 L22.4113,16.6244 C22.4113,17.7474 21.5013,18.6574 20.3793,18.6574 Z" id="Stroke-7" stroke="#FB872B" stroke-width="0.75" stroke-linecap="round" stroke-linejoin="round"></path>
                        <path d="M21.5258,14.0691 L3.9798,14.0691 C2.8568,14.0691 1.9468,13.1591 1.9468,12.0361 L1.9468,11.5131 C1.9468,10.3911 2.8568,9.4811 3.9798,9.4811 L21.5258,9.4811 C22.6488,9.4811 23.5588,10.3911 23.5588,11.5131 L23.5588,12.0361 C23.5588,13.1591 22.6488,14.0691 21.5258,14.0691" id="Fill-9" fill="#FFFFFF"></path>
                        <path d="M21.5258,14.0691 L3.9798,14.0691 C2.8568,14.0691 1.9468,13.1591 1.9468,12.0361 L1.9468,11.5131 C1.9468,10.3911 2.8568,9.4811 3.9798,9.4811 L21.5258,9.4811 C22.6488,9.4811 23.5588,10.3911 23.5588,11.5131 L23.5588,12.0361 C23.5588,13.1591 22.6488,14.0691 21.5258,14.0691 Z" id="Stroke-11" stroke="#FB872B" stroke-width="0.75" stroke-linecap="round" stroke-linejoin="round"></path>
                        <path d="M20.3793,9.4807 L2.8323,9.4807 C1.7103,9.4807 0.8003,8.5707 0.8003,7.4487 L0.8003,6.9247 C0.8003,5.8027 1.7103,4.8927 2.8323,4.8927 L20.3793,4.8927 C21.5013,4.8927 22.4113,5.8027 22.4113,6.9247 L22.4113,7.4487 C22.4113,8.5707 21.5013,9.4807 20.3793,9.4807" id="Fill-13" fill="#FFFFFF"></path>
                        <path d="M20.3793,9.4807 L2.8323,9.4807 C1.7103,9.4807 0.8003,8.5707 0.8003,7.4487 L0.8003,6.9247 C0.8003,5.8027 1.7103,4.8927 2.8323,4.8927 L20.3793,4.8927 C21.5013,4.8927 22.4113,5.8027 22.4113,6.9247 L22.4113,7.4487 C22.4113,8.5707 21.5013,9.4807 20.3793,9.4807 Z" id="Stroke-15" stroke="#FB872B" stroke-width="0.75" stroke-linecap="round" stroke-linejoin="round"></path>
                        <path d="M20.3793,4.8928 L2.8323,4.8928 C1.7103,4.8928 0.8003,3.9828 0.8003,2.8598 L0.8003,2.3368 C0.8003,1.2138 1.7103,0.3048 2.8323,0.3048 L20.3793,0.3048 C21.5013,0.3048 22.4113,1.2138 22.4113,2.3368 L22.4113,2.8598 C22.4113,3.9828 21.5013,4.8928 20.3793,4.8928" id="Fill-17" fill="#FFFFFF"></path>
                        <path d="M20.3793,4.8928 L2.8323,4.8928 C1.7103,4.8928 0.8003,3.9828 0.8003,2.8598 L0.8003,2.3368 C0.8003,1.2138 1.7103,0.3048 2.8323,0.3048 L20.3793,0.3048 C21.5013,0.3048 22.4113,1.2138 22.4113,2.3368 L22.4113,2.8598 C22.4113,3.9828 21.5013,4.8928 20.3793,4.8928 Z" id="Stroke-19" stroke="#FB872B" stroke-width="0.75" stroke-linecap="round" stroke-linejoin="round"></path>
                        <path d="M31.0795,12.9812 C31.0795,18.8592 26.3135,23.6252 20.4345,23.6252 C14.5575,23.6252 9.7915,18.8592 9.7915,12.9812 C9.7915,7.1022 14.5575,2.3362 20.4345,2.3362 C26.3135,2.3362 31.0795,7.1022 31.0795,12.9812" id="Fill-21" fill="#FFFFFF"></path>
                        <path d="M31.0795,12.9812 C31.0795,18.8592 26.3135,23.6252 20.4345,23.6252 C14.5575,23.6252 9.7915,18.8592 9.7915,12.9812 C9.7915,7.1022 14.5575,2.3362 20.4345,2.3362 C26.3135,2.3362 31.0795,7.1022 31.0795,12.9812 Z" id="Stroke-23" stroke="#FB872B" stroke-width="0.75" stroke-linecap="round" stroke-linejoin="round"></path>
                        <path d="M28.8862,12.9812 C28.8862,17.6482 25.1022,21.4322 20.4352,21.4322 C15.7682,21.4322 11.9842,17.6482 11.9842,12.9812 C11.9842,8.3142 15.7682,4.5302 20.4352,4.5302 C25.1022,4.5302 28.8862,8.3142 28.8862,12.9812" id="Fill-25" fill="#FFD0B0"></path>
                        <path d="M28.8862,12.9812 C28.8862,17.6482 25.1022,21.4322 20.4352,21.4322 C15.7682,21.4322 11.9842,17.6482 11.9842,12.9812 C11.9842,8.3142 15.7682,4.5302 20.4352,4.5302 C25.1022,4.5302 28.8862,8.3142 28.8862,12.9812 Z" id="Stroke-27" stroke="#FB872B" stroke-width="0.8"></path>
                        <path d="M25.5278,12.9812 C25.5278,15.7942 23.2478,18.0732 20.4348,18.0732 C17.6228,18.0732 15.3418,15.7942 15.3418,12.9812 C15.3418,10.1682 17.6228,7.8882 20.4348,7.8882 C23.2478,7.8882 25.5278,10.1682 25.5278,12.9812" id="Fill-29" fill="#FFFFFF"></path>
                    </g>
                    <path d="M18.5278,11.509 L18.5278,13.009" id="Stroke-35" stroke="#FB872B" stroke-width="0.8" stroke-linecap="round" stroke-linejoin="round"></path>
                    <path d="M21.5278,11.509 L21.5278,14.509" id="Stroke-36" stroke="#FB872B" stroke-width="0.8" stroke-linecap="round" stroke-linejoin="round"></path>
                </g>
            </g>
        </g>
    </g>
</svg>